<svg
  xmlns="http://www.w3.org/2000/svg"
  enable-background="new 0 0 32 32"
  viewBox="0 0 32 32"
  id="NewStock"
  transform="rotate(-30)"
>
  <path
    d="M29.158,12.538c-0.49-0.54-0.952-1.051-1.145-1.515c-0.208-0.503-0.248-1.217-0.29-1.973
		c-0.069-1.26-0.147-2.688-1.118-3.657c-0.97-0.971-2.398-1.049-3.657-1.118c-0.756-0.041-1.471-0.08-1.973-0.289
		c-0.464-0.192-0.974-0.655-1.514-1.145C18.51,1.979,17.431,1,16,1s-2.51,0.979-3.462,1.842c-0.54,0.489-1.05,0.952-1.514,1.145
		c-0.502,0.209-1.217,0.248-1.973,0.289C7.792,4.345,6.364,4.423,5.394,5.394c-0.97,0.97-1.049,2.397-1.118,3.657
		c-0.042,0.756-0.081,1.47-0.29,1.973c-0.192,0.464-0.655,0.975-1.145,1.515C1.979,13.49,1,14.569,1,16s0.979,2.51,1.842,3.462
		c0.49,0.54,0.952,1.051,1.145,1.515c0.208,0.503,0.248,1.217,0.29,1.973c0.069,1.26,0.147,2.688,1.118,3.657
		c0.97,0.971,2.398,1.049,3.657,1.118c0.756,0.041,1.471,0.08,1.973,0.289c0.464,0.192,0.974,0.655,1.514,1.145
		C13.49,30.021,14.569,31,16,31s2.51-0.979,3.462-1.842c0.54-0.489,1.05-0.952,1.514-1.145c0.502-0.209,1.217-0.248,1.973-0.289
		c1.259-0.069,2.687-0.147,3.657-1.118c0.97-0.97,1.049-2.397,1.118-3.657c0.042-0.756,0.081-1.47,0.29-1.973
		c0.192-0.464,0.655-0.975,1.145-1.515C30.021,18.51,31,17.431,31,16S30.021,13.49,29.158,12.538z M27.677,18.119
		c-0.583,0.643-1.186,1.307-1.511,2.092c-0.339,0.817-0.39,1.738-0.438,2.629c-0.052,0.945-0.106,1.923-0.535,2.353
		s-1.407,0.483-2.353,0.535c-0.891,0.049-1.812,0.1-2.63,0.438c-0.784,0.325-1.449,0.928-2.091,1.511C17.368,28.357,16.659,29,16,29
		s-1.368-0.643-2.119-1.323c-0.642-0.583-1.307-1.186-2.091-1.511c-0.818-0.339-1.739-0.39-2.63-0.438
		c-0.946-0.052-1.924-0.105-2.353-0.535s-0.483-1.407-0.535-2.353c-0.049-0.891-0.099-1.812-0.438-2.629
		c-0.325-0.785-0.928-1.449-1.511-2.092C3.643,17.368,3,16.659,3,16s0.643-1.368,1.323-2.119c0.583-0.643,1.186-1.307,1.511-2.092
		c0.339-0.817,0.39-1.738,0.438-2.629c0.052-0.945,0.106-1.923,0.535-2.353s1.407-0.483,2.353-0.535
		c0.891-0.049,1.812-0.1,2.63-0.438c0.784-0.325,1.449-0.928,2.091-1.511C14.632,3.643,15.341,3,16,3s1.368,0.643,2.119,1.323
		c0.642,0.583,1.307,1.186,2.091,1.511c0.818,0.339,1.739,0.39,2.63,0.438c0.946,0.052,1.924,0.105,2.353,0.535
		s0.483,1.407,0.535,2.353c0.049,0.891,0.099,1.812,0.438,2.629c0.325,0.785,0.928,1.449,1.511,2.092C28.357,14.632,29,15.341,29,16
		S28.357,17.368,27.677,18.119z"
    fill="#5c606d"
  ></path>
  <path
    d="M12 11c-.552 0-1 .447-1 1v3.764l-2.105-4.211c-.208-.415-.67-.63-1.125-.526C7.319 11.134 7 11.536 7 12v8c0 .553.448 1 1 1s1-.447 1-1v-3.764l2.105 4.211C11.278 20.792 11.627 21 12 21c.076 0 .153-.009.23-.026C12.681 20.866 13 20.464 13 20v-8C13 11.447 12.552 11 12 11zM17 13c.552 0 1-.447 1-1s-.448-1-1-1h-2c-.552 0-1 .447-1 1v8c0 .553.448 1 1 1h2c.552 0 1-.447 1-1s-.448-1-1-1h-1v-2h1c.552 0 1-.447 1-1s-.448-1-1-1h-1v-2H17zM24 11c-.552 0-1 .447-1 1v3.764l-.105-.211c-.339-.678-1.45-.678-1.789 0L21 15.764V12c0-.553-.448-1-1-1s-1 .447-1 1v8c0 .464.319.866.77.974.455.105.917-.111 1.125-.526L22 18.236l1.105 2.211C23.278 20.792 23.627 21 24 21c.076 0 .153-.009.23-.026C24.681 20.866 25 20.464 25 20v-8C25 11.447 24.552 11 24 11z"
    fill="#cecece"
  ></path>
</svg>
