<?xml version="1.0" encoding="utf-8"?>
<!-- Generator: Adobe Illustrator 26.0.0, SVG Export Plug-In . SVG Version: 6.00 Build 0)  -->
<svg version="1.1" id="Ebene_1" xmlns="http://www.w3.org/2000/svg" xmlns:xlink="http://www.w3.org/1999/xlink" x="0px" y="0px"
	 viewBox="0 0 32 32" style="enable-background:new 0 0 32 32;" xml:space="preserve">
<style type="text/css">
	.st0{fill:#383838;}
	.st1{fill:#F3F3F4;}
</style>
<path class="st0" d="M26.33,32H5.67C2.55,32,0,29.45,0,26.33V5.67C0,2.55,2.55,0,5.67,0h20.66C29.45,0,32,2.55,32,5.67v20.66
	C32,29.45,29.45,32,26.33,32z"/>
<g>
	<path class="st1" d="M29.15,13.32c0-2.94-2.3-5.07-5.77-5.07h-5.35v15.49H21v-5.58h2.37c0.09,0,0.18,0,0.24,0l3.19,5.58h3.43
		l-3.81-6.19C28.11,16.77,29.15,15.27,29.15,13.32z M23.37,15.58H21v-4.54h2.37c1.68,0,2.7,0.89,2.7,2.28
		C26.07,14.87,24.92,15.58,23.37,15.58z"/>
	<polygon class="st1" points="10.59,20.98 11.58,20.98 16.21,13.48 16.21,8.26 16.01,8.26 11.07,16.22 6.14,8.26 2.95,8.26 
		2.95,23.74 5.94,23.74 5.94,13.48 	"/>
</g>
</svg>
